<svg width="817" height="275" viewBox="0 0 817 275" fill="none" xmlns="http://www.w3.org/2000/svg">
<path d="M354.053 79.065C358.352 79.065 362.125 79.8052 365.373 81.2858C368.62 82.7664 371.39 84.9634 373.683 87.8768L368.167 94.2528C366.208 91.7692 364.059 89.9543 361.719 88.8081C359.427 87.6141 356.752 87.0171 353.695 87.0171C351.689 87.0171 350.018 87.2798 348.68 87.8051C347.391 88.3305 346.436 89.023 345.815 89.8827C345.242 90.7424 344.955 91.6976 344.955 92.7483C344.955 94.0379 345.457 95.1364 346.46 96.0438C347.463 96.9035 349.182 97.6199 351.618 98.193L360.429 100.199C365.11 101.25 368.453 102.826 370.459 104.927C372.513 106.981 373.54 109.656 373.54 112.951C373.54 116.055 372.728 118.73 371.104 120.975C369.48 123.172 367.211 124.867 364.298 126.061C361.385 127.207 358.041 127.781 354.268 127.781C350.973 127.781 347.94 127.399 345.17 126.634C342.448 125.822 340.012 124.724 337.863 123.339C335.713 121.954 333.922 120.354 332.49 118.539L338.078 111.876C339.176 113.405 340.537 114.766 342.161 115.96C343.785 117.154 345.624 118.109 347.677 118.826C349.779 119.494 351.976 119.829 354.268 119.829C356.227 119.829 357.874 119.614 359.212 119.184C360.597 118.706 361.623 118.061 362.292 117.249C363.009 116.39 363.367 115.363 363.367 114.169C363.367 112.927 362.937 111.876 362.077 111.017C361.265 110.109 359.737 109.417 357.492 108.939L347.892 106.79C345.122 106.121 342.734 105.262 340.728 104.211C338.77 103.112 337.266 101.727 336.215 100.056C335.212 98.3363 334.71 96.3065 334.71 93.9662C334.71 91.1484 335.475 88.6171 337.003 86.3723C338.531 84.1276 340.728 82.3604 343.594 81.0709C346.507 79.7336 349.994 79.065 354.053 79.065ZM394.145 127.781C391.757 127.781 389.608 127.351 387.698 126.491C385.787 125.631 384.259 124.27 383.113 122.408C382.014 120.497 381.465 118.037 381.465 115.029V91.2439H391.28V112.664C391.28 115.435 391.853 117.369 392.999 118.467C394.145 119.518 395.793 120.043 397.942 120.043C398.945 120.043 399.924 119.876 400.88 119.542C401.835 119.16 402.671 118.587 403.387 117.823C404.151 117.058 404.748 116.079 405.178 114.885C405.608 113.644 405.823 112.187 405.823 110.515V91.2439H415.638V127.064H406.897L406.539 120.831C405.345 123.219 403.697 124.987 401.596 126.133C399.542 127.231 397.059 127.781 394.145 127.781ZM440.294 127.781C436.664 127.781 433.345 127.136 430.336 125.846C427.374 124.557 424.963 122.742 423.1 120.402L428.76 114.67C429.906 116.39 431.434 117.799 433.345 118.897C435.255 119.996 437.524 120.545 440.15 120.545C442.013 120.545 443.494 120.282 444.592 119.757C445.738 119.184 446.312 118.3 446.312 117.106C446.312 116.342 446.049 115.697 445.523 115.172C444.998 114.599 443.947 114.145 442.371 113.811L436.067 112.521C431.912 111.661 428.951 110.372 427.183 108.653C425.464 106.885 424.604 104.617 424.604 101.847C424.604 99.8885 425.178 98.0497 426.324 96.3304C427.518 94.611 429.285 93.2259 431.625 92.1752C433.965 91.0767 436.879 90.5275 440.365 90.5275C443.947 90.5275 447.052 91.1006 449.679 92.2468C452.353 93.3453 454.455 94.9931 455.983 97.1901L450.108 102.921C449.058 101.25 447.673 99.984 445.953 99.1243C444.282 98.2169 442.515 97.7632 440.652 97.7632C439.315 97.7632 438.168 97.9065 437.213 98.193C436.258 98.4796 435.542 98.8855 435.064 99.4109C434.586 99.8885 434.348 100.509 434.348 101.274C434.348 102.038 434.682 102.706 435.35 103.28C436.019 103.805 437.237 104.259 439.004 104.641L446.312 106.145C449.846 106.862 452.377 108.079 453.905 109.799C455.434 111.47 456.198 113.5 456.198 115.888C456.198 118.181 455.577 120.234 454.335 122.049C453.141 123.816 451.35 125.225 448.962 126.276C446.622 127.279 443.732 127.781 440.294 127.781ZM476.705 80.2829V115.387C476.705 117.106 477.135 118.372 477.995 119.184C478.902 119.948 480.12 120.33 481.648 120.33C482.842 120.33 483.893 120.163 484.8 119.829C485.708 119.446 486.52 118.945 487.236 118.324L488.812 124.843C487.666 125.751 486.233 126.467 484.514 126.993C482.795 127.518 480.98 127.781 479.069 127.781C476.681 127.781 474.556 127.422 472.693 126.706C470.878 125.99 469.445 124.843 468.395 123.267C467.392 121.691 466.89 119.59 466.89 116.963V83.0052L476.705 80.2829ZM488.168 91.2439V98.5512H460.299V91.2439H488.168ZM515.575 104.211C515.575 102.157 514.978 100.557 513.784 99.4109C512.638 98.2647 511.11 97.6915 509.199 97.6915C507.432 97.6915 505.88 98.1453 504.542 99.0527C503.205 99.9602 502.226 101.465 501.605 103.566L493.223 100.987C494.035 97.8348 495.802 95.3035 498.525 93.3931C501.295 91.4827 504.996 90.5275 509.629 90.5275C512.781 90.5275 515.527 91.029 517.868 92.0319C520.208 92.9871 522.023 94.4438 523.312 96.402C524.65 98.3602 525.318 100.82 525.318 103.781V118.324C525.318 120.139 526.178 121.046 527.897 121.046C528.709 121.046 529.473 120.927 530.19 120.688L529.617 126.778C528.375 127.399 526.823 127.709 524.96 127.709C523.288 127.709 521.784 127.422 520.447 126.849C519.109 126.276 518.059 125.416 517.295 124.27C516.53 123.076 516.148 121.596 516.148 119.829V119.542L517.868 119.255C517.581 121.07 516.793 122.622 515.504 123.912C514.214 125.154 512.638 126.109 510.775 126.778C508.96 127.446 507.074 127.781 505.116 127.781C502.68 127.781 500.578 127.422 498.811 126.706C497.044 125.942 495.683 124.843 494.728 123.411C493.773 121.978 493.295 120.211 493.295 118.109C493.295 115.435 494.155 113.261 495.874 111.59C497.593 109.87 500.053 108.7 503.253 108.079L516.721 105.357L516.65 111.447L508.053 113.166C506.429 113.5 505.187 113.954 504.328 114.527C503.516 115.052 503.11 115.936 503.11 117.178C503.11 118.372 503.54 119.279 504.399 119.9C505.307 120.521 506.381 120.831 507.623 120.831C508.626 120.831 509.605 120.712 510.56 120.473C511.516 120.234 512.375 119.852 513.139 119.327C513.904 118.802 514.501 118.085 514.93 117.178C515.36 116.27 515.575 115.172 515.575 113.882V104.211ZM541.238 86.0857C539.184 86.0857 537.656 85.6559 536.653 84.7962C535.65 83.8888 535.149 82.5754 535.149 80.856C535.149 79.0888 535.65 77.7754 536.653 76.9157C537.656 76.0083 539.184 75.5546 541.238 75.5546C543.292 75.5546 544.82 76.0083 545.823 76.9157C546.826 77.7754 547.328 79.0888 547.328 80.856C547.328 82.5754 546.826 83.8888 545.823 84.7962C544.82 85.6559 543.292 86.0857 541.238 86.0857ZM546.11 91.2439V127.064H536.295V91.2439H546.11ZM556.514 127.064V91.2439H565.326L565.899 101.99L564.681 100.844C565.254 98.5035 566.161 96.5692 567.403 95.0408C568.645 93.5125 570.149 92.3901 571.917 91.6737C573.732 90.9096 575.714 90.5275 577.863 90.5275C580.346 90.5275 582.543 91.0051 584.454 91.9603C586.412 92.9155 587.94 94.3722 589.039 96.3304C590.185 98.2408 590.758 100.653 590.758 103.566V127.064H580.943V106.36C580.943 103.303 580.346 101.202 579.152 100.056C577.958 98.8617 576.406 98.2647 574.496 98.2647C573.158 98.2647 571.845 98.599 570.555 99.2676C569.314 99.8885 568.287 100.915 567.475 102.348C566.711 103.781 566.329 105.691 566.329 108.079V127.064H556.514ZM601.663 127.064V79.7814H637.125V87.7335H611.549V99.4826H631.68V107.076H611.549V119.112H638.128V127.064H601.663ZM645.995 127.064V91.2439H654.807L655.38 101.99L654.162 100.844C654.735 98.5035 655.642 96.5692 656.884 95.0408C658.126 93.5125 659.63 92.3901 661.397 91.6737C663.212 90.9096 665.194 90.5275 667.344 90.5275C669.827 90.5275 672.024 91.0051 673.935 91.9603C675.893 92.9155 677.421 94.3722 678.52 96.3304C679.666 98.2408 680.239 100.653 680.239 103.566V127.064H670.424V106.36C670.424 103.303 669.827 101.202 668.633 100.056C667.439 98.8617 665.887 98.2647 663.977 98.2647C662.639 98.2647 661.326 98.599 660.036 99.2676C658.795 99.8885 657.768 100.915 656.956 102.348C656.192 103.781 655.81 105.691 655.81 108.079V127.064H645.995ZM712.939 91.2439H723.112L709.5 127.064H698.181L684.569 91.2439H695.029L703.912 119.542L712.939 91.2439ZM733.493 86.0857C731.439 86.0857 729.911 85.6559 728.908 84.7962C727.905 83.8888 727.403 82.5754 727.403 80.856C727.403 79.0888 727.905 77.7754 728.908 76.9157C729.911 76.0083 731.439 75.5546 733.493 75.5546C735.546 75.5546 737.075 76.0083 738.078 76.9157C739.081 77.7754 739.582 79.0888 739.582 80.856C739.582 82.5754 739.081 83.8888 738.078 84.7962C737.075 85.6559 735.546 86.0857 733.493 86.0857ZM738.364 91.2439V127.064H728.549V91.2439H738.364ZM748.768 127.064V91.2439H757.294L757.938 98.2647C758.894 95.7811 760.279 93.8707 762.093 92.5334C763.956 91.1961 766.273 90.5275 769.043 90.5275C769.855 90.5275 770.595 90.5991 771.263 90.7424C771.932 90.8857 772.481 91.0767 772.911 91.3155L771.765 99.5542C771.287 99.3632 770.69 99.2199 769.974 99.1243C769.305 99.0288 768.422 98.9811 767.323 98.9811C765.89 98.9811 764.505 99.3393 763.168 100.056C761.831 100.724 760.732 101.775 759.873 103.208C759.013 104.593 758.583 106.36 758.583 108.509V127.064H748.768ZM794.626 90.5275C798.256 90.5275 801.432 91.2678 804.154 92.7483C806.924 94.2289 809.074 96.3542 810.602 99.1243C812.178 101.894 812.966 105.238 812.966 109.154C812.966 113.023 812.178 116.366 810.602 119.184C809.074 121.954 806.924 124.079 804.154 125.56C801.432 127.04 798.256 127.781 794.626 127.781C791.044 127.781 787.868 127.04 785.098 125.56C782.328 124.079 780.155 121.954 778.579 119.184C777.05 116.366 776.286 113.023 776.286 109.154C776.286 105.238 777.05 101.894 778.579 99.1243C780.155 96.3542 782.328 94.2289 785.098 92.7483C787.868 91.2678 791.044 90.5275 794.626 90.5275ZM794.626 97.8348C792.811 97.8348 791.259 98.2647 789.97 99.1243C788.728 99.9363 787.773 101.178 787.104 102.85C786.435 104.521 786.101 106.623 786.101 109.154C786.101 111.685 786.435 113.787 787.104 115.458C787.773 117.13 788.728 118.396 789.97 119.255C791.259 120.067 792.811 120.473 794.626 120.473C796.393 120.473 797.898 120.067 799.14 119.255C800.429 118.396 801.408 117.13 802.077 115.458C802.745 113.787 803.08 111.685 803.08 109.154C803.08 106.623 802.745 104.521 802.077 102.85C801.408 101.178 800.429 99.9363 799.14 99.1243C797.898 98.2647 796.393 97.8348 794.626 97.8348ZM354.053 163.065C358.352 163.065 362.125 163.805 365.373 165.286C368.62 166.766 371.39 168.963 373.683 171.877L368.167 178.253C366.208 175.769 364.059 173.954 361.719 172.808C359.427 171.614 356.752 171.017 353.695 171.017C351.689 171.017 350.018 171.28 348.68 171.805C347.391 172.33 346.436 173.023 345.815 173.883C345.242 174.742 344.955 175.698 344.955 176.748C344.955 178.038 345.457 179.136 346.46 180.044C347.463 180.903 349.182 181.62 351.618 182.193L360.429 184.199C365.11 185.25 368.453 186.826 370.459 188.927C372.513 190.981 373.54 193.656 373.54 196.951C373.54 200.055 372.728 202.73 371.104 204.975C369.48 207.172 367.211 208.867 364.298 210.061C361.385 211.207 358.041 211.781 354.268 211.781C350.973 211.781 347.94 211.399 345.17 210.634C342.448 209.822 340.012 208.724 337.863 207.339C335.713 205.954 333.922 204.354 332.49 202.539L338.078 195.876C339.176 197.405 340.537 198.766 342.161 199.96C343.785 201.154 345.624 202.109 347.677 202.826C349.779 203.494 351.976 203.829 354.268 203.829C356.227 203.829 357.874 203.614 359.212 203.184C360.597 202.706 361.623 202.061 362.292 201.249C363.009 200.39 363.367 199.363 363.367 198.169C363.367 196.927 362.937 195.876 362.077 195.017C361.265 194.109 359.737 193.417 357.492 192.939L347.892 190.79C345.122 190.121 342.734 189.262 340.728 188.211C338.77 187.112 337.266 185.727 336.215 184.056C335.212 182.336 334.71 180.306 334.71 177.966C334.71 175.148 335.475 172.617 337.003 170.372C338.531 168.128 340.728 166.36 343.594 165.071C346.507 163.734 349.994 163.065 354.053 163.065ZM398.224 174.527C401.854 174.527 405.03 175.268 407.752 176.748C410.522 178.229 412.671 180.354 414.2 183.124C415.776 185.894 416.564 189.238 416.564 193.154C416.564 197.023 415.776 200.366 414.2 203.184C412.671 205.954 410.522 208.079 407.752 209.56C405.03 211.04 401.854 211.781 398.224 211.781C394.642 211.781 391.466 211.04 388.696 209.56C385.926 208.079 383.752 205.954 382.176 203.184C380.648 200.366 379.884 197.023 379.884 193.154C379.884 189.238 380.648 185.894 382.176 183.124C383.752 180.354 385.926 178.229 388.696 176.748C391.466 175.268 394.642 174.527 398.224 174.527ZM398.224 181.835C396.409 181.835 394.857 182.265 393.567 183.124C392.325 183.936 391.37 185.178 390.702 186.85C390.033 188.521 389.699 190.623 389.699 193.154C389.699 195.685 390.033 197.787 390.702 199.458C391.37 201.13 392.325 202.396 393.567 203.255C394.857 204.067 396.409 204.473 398.224 204.473C399.991 204.473 401.495 204.067 402.737 203.255C404.027 202.396 405.006 201.13 405.674 199.458C406.343 197.787 406.677 195.685 406.677 193.154C406.677 190.623 406.343 188.521 405.674 186.85C405.006 185.178 404.027 183.936 402.737 183.124C401.495 182.265 399.991 181.835 398.224 181.835ZM434.448 159.555V200.032C434.448 201.703 434.734 202.873 435.307 203.542C435.881 204.211 436.836 204.545 438.173 204.545C438.985 204.545 439.654 204.497 440.179 204.402C440.704 204.258 441.373 204.067 442.185 203.829L441.325 210.276C440.513 210.754 439.486 211.112 438.245 211.351C437.051 211.637 435.857 211.781 434.663 211.781C431.176 211.781 428.621 210.945 426.997 209.273C425.421 207.554 424.633 204.831 424.633 201.106V159.555H434.448ZM460.119 211.781C457.731 211.781 455.582 211.351 453.671 210.491C451.761 209.631 450.233 208.27 449.086 206.408C447.988 204.497 447.439 202.037 447.439 199.029V175.244H457.254V196.664C457.254 199.435 457.827 201.369 458.973 202.467C460.119 203.518 461.767 204.043 463.916 204.043C464.919 204.043 465.898 203.876 466.853 203.542C467.809 203.16 468.644 202.587 469.361 201.823C470.125 201.058 470.722 200.079 471.152 198.885C471.582 197.644 471.797 196.187 471.797 194.515V175.244H481.611V211.064H472.871L472.513 204.831C471.319 207.219 469.671 208.987 467.57 210.133C465.516 211.231 463.033 211.781 460.119 211.781ZM504.62 164.283V199.387C504.62 201.106 505.05 202.372 505.909 203.184C506.817 203.948 508.035 204.33 509.563 204.33C510.757 204.33 511.808 204.163 512.715 203.829C513.623 203.446 514.435 202.945 515.151 202.324L516.727 208.843C515.581 209.751 514.148 210.467 512.429 210.993C510.709 211.518 508.894 211.781 506.984 211.781C504.596 211.781 502.471 211.422 500.608 210.706C498.793 209.99 497.36 208.843 496.309 207.267C495.306 205.691 494.805 203.59 494.805 200.963V167.005L504.62 164.283ZM516.082 175.244V182.551H488.214V175.244H516.082ZM527.666 170.086C525.612 170.086 524.084 169.656 523.081 168.796C522.078 167.889 521.576 166.575 521.576 164.856C521.576 163.089 522.078 161.775 523.081 160.916C524.084 160.008 525.612 159.555 527.666 159.555C529.719 159.555 531.248 160.008 532.251 160.916C533.254 161.775 533.755 163.089 533.755 164.856C533.755 166.575 533.254 167.889 532.251 168.796C531.248 169.656 529.719 170.086 527.666 170.086ZM532.537 175.244V211.064H522.722V175.244H532.537ZM559.275 174.527C562.905 174.527 566.081 175.268 568.804 176.748C571.574 178.229 573.723 180.354 575.251 183.124C576.827 185.894 577.615 189.238 577.615 193.154C577.615 197.023 576.827 200.366 575.251 203.184C573.723 205.954 571.574 208.079 568.804 209.56C566.081 211.04 562.905 211.781 559.275 211.781C555.693 211.781 552.517 211.04 549.747 209.56C546.977 208.079 544.804 205.954 543.228 203.184C541.7 200.366 540.935 197.023 540.935 193.154C540.935 189.238 541.7 185.894 543.228 183.124C544.804 180.354 546.977 178.229 549.747 176.748C552.517 175.268 555.693 174.527 559.275 174.527ZM559.275 181.835C557.461 181.835 555.908 182.265 554.619 183.124C553.377 183.936 552.422 185.178 551.753 186.85C551.084 188.521 550.75 190.623 550.75 193.154C550.75 195.685 551.084 197.787 551.753 199.458C552.422 201.13 553.377 202.396 554.619 203.255C555.908 204.067 557.461 204.473 559.275 204.473C561.043 204.473 562.547 204.067 563.789 203.255C565.078 202.396 566.057 201.13 566.726 199.458C567.395 197.787 567.729 195.685 567.729 193.154C567.729 190.623 567.395 188.521 566.726 186.85C566.057 185.178 565.078 183.936 563.789 183.124C562.547 182.265 561.043 181.835 559.275 181.835ZM585.828 211.064V175.244H594.64L595.213 185.99L593.995 184.844C594.568 182.503 595.475 180.569 596.717 179.041C597.959 177.512 599.463 176.39 601.231 175.674C603.045 174.91 605.027 174.527 607.177 174.527C609.66 174.527 611.857 175.005 613.768 175.96C615.726 176.915 617.254 178.372 618.353 180.33C619.499 182.241 620.072 184.653 620.072 187.566V211.064H610.257V190.36C610.257 187.303 609.66 185.202 608.466 184.056C607.272 182.862 605.72 182.265 603.81 182.265C602.472 182.265 601.159 182.599 599.869 183.268C598.628 183.889 597.601 184.915 596.789 186.348C596.025 187.781 595.643 189.691 595.643 192.079V211.064H585.828ZM644.512 211.781C640.882 211.781 637.562 211.136 634.554 209.846C631.592 208.557 629.18 206.742 627.318 204.402L632.977 198.67C634.124 200.39 635.652 201.799 637.562 202.897C639.473 203.996 641.741 204.545 644.368 204.545C646.231 204.545 647.712 204.282 648.81 203.757C649.956 203.184 650.529 202.3 650.529 201.106C650.529 200.342 650.267 199.697 649.741 199.172C649.216 198.599 648.165 198.145 646.589 197.811L640.285 196.521C636.13 195.661 633.168 194.372 631.401 192.653C629.682 190.885 628.822 188.617 628.822 185.847C628.822 183.889 629.395 182.05 630.542 180.33C631.736 178.611 633.503 177.226 635.843 176.175C638.183 175.077 641.097 174.527 644.583 174.527C648.165 174.527 651.27 175.101 653.896 176.247C656.571 177.345 658.673 178.993 660.201 181.19L654.326 186.921C653.276 185.25 651.891 183.984 650.171 183.124C648.5 182.217 646.732 181.763 644.87 181.763C643.532 181.763 642.386 181.906 641.431 182.193C640.476 182.48 639.759 182.886 639.282 183.411C638.804 183.889 638.565 184.509 638.565 185.274C638.565 186.038 638.9 186.706 639.568 187.28C640.237 187.805 641.455 188.259 643.222 188.641L650.529 190.145C654.064 190.862 656.595 192.079 658.123 193.799C659.652 195.47 660.416 197.5 660.416 199.888C660.416 202.181 659.795 204.234 658.553 206.049C657.359 207.816 655.568 209.225 653.18 210.276C650.84 211.279 647.95 211.781 644.512 211.781Z" fill="white"/>
<path d="M198.743 0C222.055 6.39104e-05 240.953 18.8981 240.953 42.21C240.953 65.5217 222.055 84.4199 198.743 84.4199C191.771 84.4199 185.195 82.7275 179.4 79.7344C165.521 93.7758 149.088 119.183 140.209 164.362L139.552 246.534C139.679 248.671 139.535 249.743 137.804 250.773L145.624 249.091L145.663 249.052C169.541 220.027 206.872 196.947 257.651 179.816L266.139 209.34L268.645 217.314L272.438 234.196L153.182 266.146L144.799 271.413C144.799 272.133 144.498 272.788 144.026 273.26L143.908 273.391C143.437 273.797 142.834 274.032 142.18 274.032H130.182C129.461 274.032 128.806 273.731 128.335 273.26C127.85 272.788 127.562 272.133 127.562 271.413L119.179 266.161L0 234.232L3.52832 217.251L6.20605 209.337L14.6934 179.814C39.4876 188.171 61.0734 197.955 79.4482 209.153L79.4512 209.156C98.6134 220.827 114.294 234.043 126.485 248.776L134.616 250.847C133.602 250.394 133.172 249.695 132.813 248.486L133.483 218.813L134.86 164.25C134.233 161.112 128.046 130.528 117.633 108.466C110.902 113.005 102.792 115.655 94.0625 115.655C70.7509 115.655 51.8526 96.757 51.8525 73.4453C51.8525 50.1336 70.7508 31.2355 94.0625 31.2354C117.374 31.2354 136.272 50.1335 136.272 73.4453C136.272 86.1061 130.696 97.4626 121.868 105.199C129.342 120.372 134.694 139.71 137.65 151.932C147.103 113.29 162.251 90.5078 175.287 77.3047C163.979 69.7319 156.533 56.8413 156.533 42.21C156.533 18.8981 175.431 2.47429e-05 198.743 0ZM70.0703 61.3145C69.9229 60.9409 69.5031 60.7577 69.127 60.8975L64.9814 62.5322C64.608 62.6772 64.4196 63.0995 64.5645 63.4756C64.7119 63.8514 65.1338 64.0362 65.5098 63.8916L68.0547 62.8955C65.274 70.1197 65.5813 78.1676 68.8984 85.1602C72.2183 92.1525 78.2579 97.4777 85.6113 99.8926C92.9642 102.307 100.987 101.601 107.807 97.9385C111.927 95.7196 115.435 92.5192 118.022 88.6201C118.254 88.2847 118.17 87.8241 117.835 87.5928C117.497 87.3591 117.036 87.4458 116.805 87.7812C111.917 95.1825 103.681 99.6865 94.8105 99.8086C85.9394 99.9302 77.5815 95.6551 72.4902 88.3906C67.3989 81.1254 66.2324 71.8122 69.374 63.5156V63.5137L70.3496 65.9863C70.408 66.1819 70.5457 66.3446 70.7285 66.4336C70.9114 66.525 71.1255 66.5326 71.3135 66.459C71.5038 66.3852 71.6539 66.2353 71.7275 66.0449C71.8037 65.8569 71.793 65.6429 71.7041 65.46L70.0703 61.3145ZM99.8145 51.0859C99.6011 50.9542 99.3216 51.0026 99.1641 51.1953L79.8047 74.3037C79.5812 74.5731 79.5333 74.947 79.6807 75.2646C79.828 75.5823 80.146 75.7854 80.4941 75.7881H95.877L88.8643 94.3057C88.7729 94.5343 88.8648 94.7969 89.0781 94.9189C89.2914 95.0508 89.5709 95.0022 89.7285 94.8096L109.088 71.7012C109.312 71.4318 109.359 71.058 109.212 70.7402C109.064 70.4225 108.747 70.2193 108.398 70.2168V70.2363H93.0146L100.028 51.6992C100.12 51.4705 100.028 51.2079 99.8145 51.0859ZM103.262 46.1523C95.9159 43.7402 87.9008 44.4444 81.0859 48.0996C76.9659 50.3185 73.4577 53.5189 70.8701 57.418C70.6468 57.7533 70.741 58.206 71.0762 58.4297C71.4116 58.6533 71.8642 58.559 72.0879 58.2236C76.9909 50.8551 85.2136 46.3835 94.0645 46.2715C102.913 46.1596 111.248 50.4252 116.337 57.667C121.423 64.9088 122.608 74.1972 119.499 82.4834L118.522 80.0098C118.497 79.7837 118.367 79.5827 118.172 79.4658C117.976 79.3492 117.737 79.3316 117.523 79.418C117.313 79.502 117.156 79.683 117.095 79.9014C117.036 80.1223 117.082 80.3558 117.222 80.5361L118.822 84.7148C118.98 85.0782 119.397 85.2511 119.766 85.1064L123.911 83.4727C124.285 83.3278 124.473 82.9055 124.328 82.5293C124.181 82.1532 123.759 81.9675 123.383 82.1123L120.838 83.1084C123.603 75.8868 123.288 67.8464 119.969 60.8643C116.646 53.8824 110.61 48.5645 103.262 46.1523ZM228.221 49.0205C226.55 49.3193 224.693 49.5637 222.759 49.7998L222.761 49.793C212.475 51.1319 199.546 52.7939 195.885 67.333C198.531 66.5422 201.62 65.2944 204.445 63.7949C207.219 62.3199 209.75 61.0938 211.78 59.2217C210.207 61.8502 206.257 64.4337 205.116 65.0459C202.211 66.5936 199.029 67.8652 196.309 68.6904C204.857 70.8541 211.322 69.5522 216.41 65.9092C221.496 62.2616 225.228 56.2591 228.221 49.0205ZM180.627 14.3516C180.014 16.1538 178.371 21.0234 173.958 34.2598C168.143 51.6026 187.753 64.3306 193.212 67.4766C193.125 66.7681 193.032 65.9734 192.924 65.2148C192.604 62.7165 190.787 48.5389 187.478 41.9326C192.505 48.8954 194.02 62.7081 194.344 65.0439C194.398 65.5765 194.48 66.1399 194.563 66.8086C195.692 62.3679 197.633 59.0701 200.063 56.5996C202.137 48.6899 200.695 41.5559 196.975 34.6387C193.343 27.8622 187.495 21.2676 180.627 14.3516Z" fill="white"/>
</svg>
